<svg width="25" height="25" viewBox="0 0 25 25" fill="none" xmlns="http://www.w3.org/2000/svg">
<g id="vuesax/outline/close-square">
<g id="close-square">
<path id="Vector" d="M9.55208 16.2292C9.35417 16.2292 9.15625 16.1562 9 16C8.69792 15.6979 8.69792 15.1979 9 14.8958L14.8958 9C15.1979 8.69792 15.6979 8.69792 16 9C16.3021 9.30208 16.3021 9.80208 16 10.1042L10.1042 16C9.95833 16.1562 9.75 16.2292 9.55208 16.2292Z" fill="#FF0000"/>
<path id="Vector_2" d="M15.4479 16.2292C15.25 16.2292 15.0521 16.1562 14.8958 16L9 10.1042C8.69792 9.80208 8.69792 9.30208 9 9C9.30208 8.69792 9.80208 8.69792 10.1042 9L16 14.8958C16.3021 15.1979 16.3021 15.6979 16 16C15.8437 16.1562 15.6458 16.2292 15.4479 16.2292Z" fill="#FF0000"/>
<path id="Vector_3" d="M15.6247 23.6981H9.37467C3.71842 23.6981 1.30176 21.2814 1.30176 15.6252V9.37516C1.30176 3.71891 3.71842 1.30225 9.37467 1.30225H15.6247C21.2809 1.30225 23.6976 3.71891 23.6976 9.37516V15.6252C23.6976 21.2814 21.2809 23.6981 15.6247 23.6981ZM9.37467 2.86475C4.57259 2.86475 2.86426 4.57308 2.86426 9.37516V15.6252C2.86426 20.4272 4.57259 22.1356 9.37467 22.1356H15.6247C20.4268 22.1356 22.1351 20.4272 22.1351 15.6252V9.37516C22.1351 4.57308 20.4268 2.86475 15.6247 2.86475H9.37467Z" fill="#FF0000"/>
</g>
</g>
</svg>
