<svg width="31" height="32" viewBox="0 0 31 32" fill="none" xmlns="http://www.w3.org/2000/svg">
<path d="M16.7918 30.3332H11.6252C4.61141 30.3332 1.61475 27.2398 1.61475 19.9998V11.9998C1.61475 4.75984 4.61141 1.6665 11.6252 1.6665H19.3752C26.3889 1.6665 29.3856 4.75984 29.3856 11.9998V17.3332C29.3856 17.8798 28.9464 18.3332 28.4168 18.3332C27.8872 18.3332 27.4481 17.8798 27.4481 17.3332V11.9998C27.4481 5.85317 25.3297 3.6665 19.3752 3.6665H11.6252C5.67058 3.6665 3.55225 5.85317 3.55225 11.9998V19.9998C3.55225 26.1465 5.67058 28.3332 11.6252 28.3332H16.7918C17.3214 28.3332 17.7606 28.7865 17.7606 29.3332C17.7606 29.8798 17.3214 30.3332 16.7918 30.3332Z" fill="#292D32"/>
<path d="M9.46796 20.32C9.26129 20.32 9.05463 20.2533 8.8738 20.1067C8.44755 19.7733 8.37007 19.1467 8.69299 18.7067L11.7671 14.5867C12.1417 14.0933 12.6713 13.7733 13.2784 13.6933C13.8855 13.6133 14.4796 13.7867 14.9575 14.1733L17.3213 16.0934C17.4117 16.1734 17.5021 16.16 17.5667 16.16C17.6184 16.16 17.7088 16.1333 17.7863 16.0267L20.77 12.0533C21.093 11.6133 21.7001 11.5333 22.1263 11.88C22.5526 12.2133 22.6301 12.84 22.2942 13.28L19.3105 17.2533C18.9359 17.7467 18.4063 18.0667 17.7992 18.1334C17.2051 18.2134 16.598 18.04 16.133 17.6534L13.7692 15.7333C13.6788 15.6533 13.5755 15.6533 13.5238 15.6667C13.4721 15.6667 13.3817 15.6934 13.3042 15.8L10.2301 19.92C10.0492 20.1867 9.76504 20.32 9.46796 20.32Z" fill="#292D32"/>
<path d="M26.1694 30.3335C25.7173 30.3335 25.136 30.1868 24.4514 29.7602L24.1285 29.5601C24.0381 29.5068 23.7668 29.5068 23.6764 29.5601L23.3535 29.7602C21.8681 30.6802 20.9252 30.2935 20.5118 29.9735C20.0856 29.6535 19.4268 28.8535 19.8143 27.0935L19.8789 26.8135C19.9048 26.7068 19.8272 26.4535 19.7627 26.3735L19.3106 25.9068C18.5485 25.1068 18.2514 24.1735 18.5097 23.3335C18.7681 22.5068 19.5302 21.9201 20.6023 21.7335L21.0931 21.6535C21.1835 21.6268 21.3643 21.4935 21.416 21.4001L21.7777 20.6401C22.2814 19.5868 23.0564 18.9868 23.9089 18.9868C24.7614 18.9868 25.5364 19.5868 26.0402 20.6401L26.4018 21.3868C26.4535 21.4801 26.6343 21.6135 26.7248 21.6401L27.2156 21.7201C28.2877 21.9068 29.0498 22.4935 29.3081 23.3201C29.5664 24.1468 29.2823 25.0801 28.5073 25.8935L28.0552 26.3601C27.9906 26.4401 27.9131 26.6935 27.9389 26.8001L28.0035 27.0801C28.391 28.8401 27.7323 29.6401 27.306 29.9601C27.0735 30.1468 26.6989 30.3335 26.1694 30.3335ZM23.8831 21.0001C23.8702 21.0135 23.6894 21.1468 23.5085 21.5335L23.1469 22.2935C22.8369 22.9468 22.1006 23.5068 21.416 23.6268L20.9252 23.7068C20.5119 23.7735 20.3698 23.9202 20.3569 23.9468C20.3569 23.9735 20.3956 24.1868 20.6927 24.4935L21.1447 24.9601C21.6743 25.5201 21.9456 26.4801 21.7777 27.2401L21.7131 27.5201C21.5968 28.0401 21.6485 28.2668 21.6743 28.3468C21.7131 28.3201 21.9327 28.2935 22.3589 28.0268L22.6818 27.8268C23.3923 27.3868 24.4127 27.3868 25.1231 27.8268L25.446 28.0268C25.9756 28.3601 26.1952 28.3201 26.2081 28.3201C26.1564 28.3201 26.221 28.0535 26.1047 27.5201L26.0402 27.2401C25.8723 26.4668 26.1435 25.5201 26.6731 24.9601L27.1252 24.4935C27.4223 24.1868 27.461 23.9735 27.461 23.9335C27.4481 23.9068 27.306 23.7735 26.8927 23.6935L26.4018 23.6135C25.7043 23.4935 24.981 22.9335 24.671 22.2802L24.3093 21.5335C24.1027 21.1335 23.9218 21.0135 23.8831 21.0001Z" fill="#292D32"/>
</svg>
