<svg width="35" height="35" viewBox="0 0 35 35" fill="none" xmlns="http://www.w3.org/2000/svg">
<path d="M6.01562 30.625C5.00034 30.625 4.02664 30.2217 3.30873 29.5038C2.59082 28.7859 2.1875 27.8122 2.1875 26.7969V21.3281C2.1875 20.893 2.36035 20.4757 2.66803 20.168C2.9757 19.8604 3.393 19.6875 3.82812 19.6875C4.26325 19.6875 4.68055 19.8604 4.98822 20.168C5.2959 20.4757 5.46875 20.893 5.46875 21.3281V26.7969C5.46875 27.0988 5.71375 27.3438 6.01562 27.3438H28.9844C29.1294 27.3438 29.2685 27.2861 29.3711 27.1836C29.4736 27.081 29.5312 26.9419 29.5312 26.7969V21.3281C29.5312 20.893 29.7041 20.4757 30.0118 20.168C30.3195 19.8604 30.7368 19.6875 31.1719 19.6875C31.607 19.6875 32.0243 19.8604 32.332 20.168C32.6396 20.4757 32.8125 20.893 32.8125 21.3281V26.7969C32.8125 27.8122 32.4092 28.7859 31.6913 29.5038C30.9734 30.2217 29.9997 30.625 28.9844 30.625H6.01562Z" fill="black"/>
<path d="M15.8593 16.8197V4.375C15.8593 3.93988 16.0322 3.52258 16.3399 3.2149C16.6475 2.90723 17.0648 2.73438 17.5 2.73438C17.9351 2.73438 18.3524 2.90723 18.6601 3.2149C18.9677 3.52258 19.1406 3.93988 19.1406 4.375V16.8197L23.45 12.5125C23.6022 12.3602 23.783 12.2395 23.9819 12.1571C24.1808 12.0747 24.394 12.0323 24.6093 12.0323C24.8246 12.0323 25.0379 12.0747 25.2368 12.1571C25.4357 12.2395 25.6165 12.3602 25.7687 12.5125C25.921 12.6648 26.0417 12.8455 26.1241 13.0444C26.2065 13.2434 26.2489 13.4566 26.2489 13.6719C26.2489 13.8872 26.2065 14.1004 26.1241 14.2993C26.0417 14.4983 25.921 14.679 25.7687 14.8313L18.6593 21.9406C18.5072 22.093 18.3264 22.2139 18.1275 22.2964C17.9286 22.3789 17.7153 22.4213 17.5 22.4213C17.2846 22.4213 17.0714 22.3789 16.8724 22.2964C16.6735 22.2139 16.4928 22.093 16.3406 21.9406L9.2312 14.8313C9.07895 14.679 8.95818 14.4983 8.87578 14.2993C8.79339 14.1004 8.75098 13.8872 8.75098 13.6719C8.75098 13.4566 8.79339 13.2434 8.87578 13.0444C8.95818 12.8455 9.07895 12.6648 9.2312 12.5125C9.38346 12.3602 9.56421 12.2395 9.76313 12.1571C9.96206 12.0747 10.1753 12.0323 10.3906 12.0323C10.6059 12.0323 10.8191 12.0747 11.018 12.1571C11.217 12.2395 11.3977 12.3602 11.55 12.5125L15.8593 16.8197Z" fill="black"/>
</svg>
