<svg width="30" height="30" viewBox="0 0 30 30" fill="none" xmlns="http://www.w3.org/2000/svg">
<path d="M16.25 28.4375H6.25C3.225 28.4375 1.5625 26.775 1.5625 23.75V13.75C1.5625 10.725 3.225 9.0625 6.25 9.0625H12.5C13.0125 9.0625 13.4375 9.4875 13.4375 10V23.75C13.4375 25.725 14.275 26.5625 16.25 26.5625C16.7625 26.5625 17.1875 26.9875 17.1875 27.5C17.1875 28.0125 16.7625 28.4375 16.25 28.4375ZM6.25 10.9375C4.275 10.9375 3.4375 11.775 3.4375 13.75V23.75C3.4375 25.725 4.275 26.5625 6.25 26.5625H12.25C11.8 25.825 11.5625 24.8875 11.5625 23.75V10.9375H6.25Z" fill="#292D32"/>
<path d="M12.5 10.9375H6.25C5.7375 10.9375 5.3125 10.5125 5.3125 10V7.5C5.3125 5.6 6.85 4.0625 8.75 4.0625H12.6375C12.925 4.0625 13.2 4.19997 13.375 4.42497C13.55 4.66247 13.6125 4.9625 13.5375 5.2375C13.4625 5.5125 13.4375 5.825 13.4375 6.25V10C13.4375 10.5125 13.0125 10.9375 12.5 10.9375ZM7.1875 9.0625H11.5625V6.25C11.5625 6.1375 11.5625 6.0375 11.5625 5.9375H8.75C7.8875 5.9375 7.1875 6.6375 7.1875 7.5V9.0625Z" fill="#292D32"/>
<path d="M17.5 17.1875C16.9875 17.1875 16.5625 16.7625 16.5625 16.25V10C16.5625 9.4875 16.9875 9.0625 17.5 9.0625C18.0125 9.0625 18.4375 9.4875 18.4375 10V16.25C18.4375 16.7625 18.0125 17.1875 17.5 17.1875Z" fill="#292D32"/>
<path d="M22.5 17.1875C21.9875 17.1875 21.5625 16.7625 21.5625 16.25V10C21.5625 9.4875 21.9875 9.0625 22.5 9.0625C23.0125 9.0625 23.4375 9.4875 23.4375 10V16.25C23.4375 16.7625 23.0125 17.1875 22.5 17.1875Z" fill="#292D32"/>
<path d="M22.5 28.4375H17.5C16.9875 28.4375 16.5625 28.0125 16.5625 27.5V22.5C16.5625 21.3 17.55 20.3125 18.75 20.3125H21.25C22.45 20.3125 23.4375 21.3 23.4375 22.5V27.5C23.4375 28.0125 23.0125 28.4375 22.5 28.4375ZM18.4375 26.5625H21.5625V22.5C21.5625 22.325 21.425 22.1875 21.25 22.1875H18.75C18.575 22.1875 18.4375 22.325 18.4375 22.5V26.5625Z" fill="#292D32"/>
<path d="M7.5 22.1875C6.9875 22.1875 6.5625 21.7625 6.5625 21.25V16.25C6.5625 15.7375 6.9875 15.3125 7.5 15.3125C8.0125 15.3125 8.4375 15.7375 8.4375 16.25V21.25C8.4375 21.7625 8.0125 22.1875 7.5 22.1875Z" fill="#292D32"/>
<path d="M23.75 28.4375H16.25C13.225 28.4375 11.5625 26.775 11.5625 23.75V6.25C11.5625 3.225 13.225 1.5625 16.25 1.5625H23.75C26.775 1.5625 28.4375 3.225 28.4375 6.25V23.75C28.4375 26.775 26.775 28.4375 23.75 28.4375ZM16.25 3.4375C14.275 3.4375 13.4375 4.275 13.4375 6.25V23.75C13.4375 25.725 14.275 26.5625 16.25 26.5625H23.75C25.725 26.5625 26.5625 25.725 26.5625 23.75V6.25C26.5625 4.275 25.725 3.4375 23.75 3.4375H16.25Z" fill="#292D32"/>
</svg>
