<svg width="34" height="34" viewBox="0 0 34 34" fill="none" xmlns="http://www.w3.org/2000/svg">
<path d="M25.9107 32.2293H8.08901C3.27235 32.2293 3.01735 29.5802 2.80485 27.441L2.23818 20.3435C2.11068 18.9693 2.50735 17.5952 3.38568 16.4902C4.43401 15.2152 5.92151 14.521 7.52235 14.521H26.4774C28.0499 14.521 29.5373 15.2152 30.5432 16.4193L30.784 16.7452C31.549 17.7935 31.889 19.0685 31.7615 20.3577L31.1949 27.4268C30.9824 29.5802 30.7274 32.2293 25.9107 32.2293ZM7.52235 16.646C6.57318 16.646 5.66651 17.071 5.07151 17.8077L4.97235 17.9068C4.51901 18.4877 4.27818 19.3093 4.36318 20.1593L4.92985 27.2568C5.12818 29.3252 5.21318 30.1043 8.08901 30.1043H25.9107C28.8007 30.1043 28.8715 29.3252 29.0699 27.2427L29.6365 20.1452C29.7215 19.3093 29.4807 18.4735 28.9282 17.8218L28.7865 17.6518C28.149 16.986 27.3415 16.646 26.4632 16.646H7.52235Z" fill="#292D32"/>
<path d="M29.0418 17.3118C28.461 17.3118 27.9793 16.8301 27.9793 16.2493V13.7135C27.9793 9.49181 27.2427 8.75514 23.021 8.75514H19.4085C17.8077 8.75514 17.2552 8.18848 16.646 7.38098L14.8185 4.95848C14.1952 4.13681 14.0535 3.93848 12.7785 3.93848H10.9793C6.75766 3.93848 6.021 4.67514 6.021 8.89681V16.1926C6.021 16.7735 5.53933 17.2551 4.9585 17.2551C4.37766 17.2551 3.896 16.7735 3.896 16.1926V8.89681C3.896 3.47098 5.5535 1.81348 10.9793 1.81348H12.7927C14.9743 1.81348 15.6543 2.52181 16.5327 3.68348L18.346 6.09181C18.7285 6.60181 18.7568 6.63014 19.4227 6.63014H23.0352C28.461 6.63014 30.1185 8.28764 30.1185 13.7135V16.2493C30.1043 16.8301 29.6227 17.3118 29.0418 17.3118Z" fill="#292D32"/>
<path d="M20.641 25.146H13.3594C12.7785 25.146 12.2969 24.6643 12.2969 24.0835C12.2969 23.5027 12.7785 23.021 13.3594 23.021H20.641C21.2219 23.021 21.7035 23.5027 21.7035 24.0835C21.7035 24.6643 21.236 25.146 20.641 25.146Z" fill="#292D32"/>
</svg>
