<svg width="31" height="31" viewBox="0 0 31 31" fill="none" xmlns="http://www.w3.org/2000/svg">
<path d="M11.315 2.23479H11.4829C17.2179 2.23479 19.9821 4.49521 20.46 9.55854C20.5117 10.0881 20.1242 10.566 19.5817 10.6177C19.065 10.6694 18.5742 10.269 18.5225 9.73938C18.1479 5.68354 16.2363 4.17229 11.47 4.17229H11.3021C6.045 4.17229 4.185 6.03229 4.185 11.2894L4.185 19.711C4.185 24.9681 6.045 26.8281 11.3021 26.8281H11.47C16.2621 26.8281 18.1738 25.291 18.5225 21.1577C18.5871 20.6281 19.0392 20.2277 19.5817 20.2794C20.1242 20.3181 20.5117 20.796 20.4729 21.3256C20.0338 26.4665 17.2567 28.7656 11.4829 28.7656H11.315C4.97292 28.7656 2.26042 26.0531 2.26042 19.711L2.26042 11.2894C2.26042 4.94729 4.97292 2.23479 11.315 2.23479Z" fill="#292D32"/>
<path d="M11.6251 14.5313L26.3242 14.5313C26.8538 14.5313 27.293 14.9704 27.293 15.5C27.293 16.0296 26.8538 16.4688 26.3242 16.4688L11.6251 16.4687C11.0955 16.4687 10.6563 16.0296 10.6563 15.5C10.6563 14.9704 11.0955 14.5313 11.6251 14.5313Z" fill="#292D32"/>
<path d="M23.4437 10.204C23.6891 10.204 23.9346 10.2945 24.1283 10.4882L28.4554 14.8153C28.83 15.1899 28.83 15.8099 28.4554 16.1845L24.1283 20.5115C23.7537 20.8861 23.1337 20.8861 22.7591 20.5115C22.3846 20.137 22.3846 19.517 22.7591 19.1424L26.4016 15.4999L22.7591 11.8574C22.3846 11.4828 22.3846 10.8628 22.7591 10.4882C22.94 10.2945 23.1983 10.204 23.4437 10.204Z" fill="#292D32"/>
</svg>
