<svg width="25" height="25" viewBox="0 0 25 25" fill="none" xmlns="http://www.w3.org/2000/svg">
<g id="vuesax/outline/tick-square">
<g id="tick-square">
<path id="Vector" d="M15.6247 23.6981H9.37467C3.71842 23.6981 1.30176 21.2814 1.30176 15.6252V9.37516C1.30176 3.71891 3.71842 1.30225 9.37467 1.30225H15.6247C21.2809 1.30225 23.6976 3.71891 23.6976 9.37516V15.6252C23.6976 21.2814 21.2809 23.6981 15.6247 23.6981ZM9.37467 2.86475C4.57259 2.86475 2.86426 4.57308 2.86426 9.37516V15.6252C2.86426 20.4272 4.57259 22.1356 9.37467 22.1356H15.6247C20.4268 22.1356 22.1351 20.4272 22.1351 15.6252V9.37516C22.1351 4.57308 20.4268 2.86475 15.6247 2.86475H9.37467Z" fill="#28D300"/>
<path id="Vector_2" d="M11.0205 16.2293C10.8122 16.2293 10.6143 16.146 10.4684 16.0002L7.52051 13.0522C7.21842 12.7502 7.21842 12.2502 7.52051 11.9481C7.82259 11.646 8.32259 11.646 8.62467 11.9481L11.0205 14.3439L16.3747 8.98975C16.6768 8.68766 17.1768 8.68766 17.4788 8.98975C17.7809 9.29183 17.7809 9.79183 17.4788 10.0939L11.5726 16.0002C11.4268 16.146 11.2288 16.2293 11.0205 16.2293Z" fill="#28D300"/>
</g>
</g>
</svg>
